<?xml version="1.0" encoding="UTF-8"?>
<!DOCTYPE svg PUBLIC "-//W3C//DTD SVG 1.1//EN" "http://www.w3.org/Graphics/SVG/1.1/DTD/svg11.dtd">
<!-- Creator: CorelDRAW X6 -->
<svg xmlns="http://www.w3.org/2000/svg" xml:space="preserve" width="6.59722in" height="8.54166in" version="1.1" style="shape-rendering:geometricPrecision; text-rendering:geometricPrecision; image-rendering:optimizeQuality; fill-rule:evenodd; clip-rule:evenodd"
viewBox="0 0 6597 8542"
 xmlns:xlink="http://www.w3.org/1999/xlink">
 <defs>
  <style type="text/css">
   <![CDATA[
    .fil0 {fill:#373435;fill-rule:nonzero}
    .fil2 {fill:#A9ABAE;fill-rule:nonzero}
    .fil1 {fill:#FEFEFE;fill-rule:nonzero}
   ]]>
  </style>
 </defs>
 <g id="Layer_x0020_1">
  <metadata id="CorelCorpID_0Corel-Layer"/>
  <polygon class="fil0" points="0,8542 6605,8542 6605,-7 0,-7 "/>
  <path class="fil1" d="M2061 2817l336 0 -112 -112 0 -336 -336 0c-39,0 -77,7 -112,19 -95,34 -171,109 -205,205 -12,35 -19,73 -19,112l0 896c0,39 7,77 19,112 34,95 109,171 205,205 35,12 73,19 112,19l336 0 0 -448 -224 0 0 224 -112 0c-62,0 -112,-50 -112,-112l0 -896c0,-62 50,-112 112,-112l112 0 0 224z"/>
  <polygon class="fil1" points="3055,3812 2904,2369 2453,2369 2551,2468 2397,3937 2732,3937 2632,3836 2732,2883 2843,3937 3180,3937 "/>
  <polygon class="fil1" points="4678,3812 4527,2369 4076,2369 4174,2468 4020,3937 4356,3937 4255,3836 4356,2883 4466,3937 4803,3937 "/>
  <path class="fil1" d="M3908 2705l0 -336 -336 0c-39,0 -77,7 -112,19 -95,34 -171,109 -205,205 -12,35 -19,73 -19,112l0 383 224 129 84 49 140 81 0 254c0,62 -50,112 -112,112l-112 0 0 -224 -336 0 112 112 0 336 336 0 0 0c39,0 77,-7 112,-19 95,-34 171,-109 205,-205 12,-35 19,-73 19,-112l0 -383 -224 -129 -84 -49 -140 -81 0 -254c0,-62 50,-112 112,-112l112 0 0 224 224 0 112 0 -112 -112z"/>
  <path class="fil1" d="M1613 5448l0 -366 112 -65 112 65 0 254c0,62 -50,112 -112,112l-112 0zm112 -689l-28 16 -84 49 0 -495 112 0c62,0 112,50 112,112l0 254 -112 65zm317 -430c-34,-95 -109,-171 -205,-205 -35,-12 -73,-19 -112,-19l-336 0 -112 0 112 112 0 1455 336 0c39,0 77,-7 112,-19 95,-34 171,-109 205,-205 12,-35 19,-73 19,-112l0 -383 -112 -65 112 -65 0 -383c0,-39 -7,-77 -19,-112z"/>
  <path class="fil1" d="M2397 4824l0 -495 112 0c62,0 112,50 112,112l0 254 -33 19 -107 62 -84 49zm448 736l-41 -41 -156 -582 197 -114 0 -383c0,-39 -7,-77 -19,-112 -34,-95 -109,-171 -205,-205 -35,-12 -73,-19 -112,-19l-336 0 -112 0 112 112 0 1455 224 0 0 -590 50 -29 166 619 344 0 -112 -112z"/>
  <path class="fil1" d="M3404 4105l0 1231c0,62 -50,112 -112,112 -62,0 -112,-50 -112,-112l0 -1231 -336 0 112 112 0 1119c0,39 7,77 19,112 34,95 109,171 205,205 35,12 73,19 112,19 39,0 77,-7 112,-19 95,-34 171,-109 205,-205 12,-35 19,-73 19,-112l0 -1231 -224 0z"/>
  <polygon class="fil1" points="5182,5547 5031,4105 4580,4105 4678,4203 4524,5672 4859,5672 4759,5572 4859,4618 4970,5672 5307,5672 "/>
  <path class="fil1" d="M4356 4105l-224 0 112 112 0 1119c0,62 -50,112 -112,112 -62,0 -112,-50 -112,-112l0 -336 -336 0 112 112 0 224c0,39 7,77 19,112 34,95 109,171 205,205 35,12 73,19 112,19 39,0 77,-7 112,-19 95,-34 171,-109 205,-205 12,-35 19,-73 19,-112l0 -1231 -112 0z"/>
  <path class="fil2" d="M1466 6098l65 0c42,0 54,-17 54,-37 0,-26 -10,-38 -39,-38l-79 0 0 75zm-1 -134l66 0c25,0 41,-10 41,-33 0,-27 -15,-33 -41,-33l-66 0 0 66zm-76 -125l155 0c64,0 107,22 107,82 0,41 -23,62 -66,72l0 1c43,3 78,26 78,73 0,66 -49,91 -130,91l-144 0 0 -317z"/>
  <path class="fil2" d="M1879 5984l73 0c25,0 42,-13 42,-43 0,-29 -17,-42 -42,-43l-73 0 0 86zm-79 -145l159 0c71,0 115,33 115,104 0,41 -26,74 -66,86l73 128 -89 0 -62 -114 -50 0 0 114 -79 0 0 -317z"/>
  <polygon class="fil2" points="2211,6157 2211,5839 2445,5839 2445,5901 2290,5901 2290,5959 2434,5959 2434,6020 2290,6020 2290,6095 2458,6095 2458,6157 "/>
  <polygon class="fil2" points="2561,5839 2640,5839 2688,6066 2689,6066 2745,5839 2817,5839 2875,6066 2876,6066 2923,5839 3001,5839 2919,6157 2837,6157 2780,5940 2779,5940 2723,6157 2644,6157 "/>
  <polygon class="fil2" points="3124,6157 3203,6157 3203,5839 3124,5839 "/>
  <polygon class="fil2" points="3354,5839 3434,5839 3550,6042 3551,6042 3551,5839 3623,5839 3623,6157 3543,6157 3427,5957 3426,5957 3426,6157 3354,6157 "/>
  <path class="fil2" d="M3995 5939c-16,-27 -41,-41 -75,-41 -49,0 -82,31 -82,101 0,62 28,101 82,101 29,0 67,-17 70,-58l-70 0 0 -62 137 0 0 177 -62 0 0 -29c-20,24 -53,37 -92,37 -96,0 -144,-70 -144,-166 0,-97 52,-169 156,-169 62,0 115,28 146,79l-66 29z"/>
  <path class="fil2" d="M4624 5945c-11,-29 -38,-48 -66,-48 -44,0 -78,29 -78,101 0,46 19,101 81,101 21,0 53,-16 65,-45l63 30c-27,49 -75,81 -128,81 -101,0 -160,-78 -160,-168 0,-89 55,-168 154,-168 62,0 103,30 133,83l-63 32z"/>
  <path class="fil2" d="M4964 5897c-46,0 -81,29 -81,101 0,46 19,101 81,101 59,0 81,-52 81,-101 0,-50 -22,-101 -81,-101zm0 268c-101,0 -161,-78 -161,-168 0,-89 59,-168 161,-168 101,0 160,78 160,168 0,89 -59,168 -160,168z"/>
  <polygon class="fil2" points="5256,6157 5328,6157 5328,6082 5256,6082 "/>
  <polygon class="fil2" points="2866,2955 2787,2877 2892,3878 2962,3878 "/>
  <polygon class="fil2" points="3290,3878 3369,3878 3369,3654 3337,3623 3401,3623 3401,3544 3259,3544 3290,3576 "/>
  <path class="fil2" d="M2754 4516c0,-67 -39,-124 -96,-152 11,22 17,47 17,73l0 286 -337 194 79 79 337 -194 0 -286z"/>
  <path class="fil2" d="M3369 2783c0,-32 5,-63 16,-93 11,-30 27,-58 47,-83 11,-16 25,-29 40,-40 25,-20 53,-36 83,-47 30,-11 61,-16 93,-16l200 0 0 -79 -279 0c-32,0 -63,5 -93,16 -79,28 -142,91 -170,170 -11,30 -16,61 -16,93l0 350 79 45 0 -317z"/>
  <polygon class="fil2" points="2545,3878 2687,2525 2666,2505 2859,2505 2850,2426 2588,2426 2608,2447 2458,3878 "/>
  <path class="fil2" d="M4297 4191l0 1142c0,93 -76,168 -168,168 -26,0 -51,-6 -73,-17 27,56 85,95 152,95 36,0 70,-12 98,-31 14,-12 28,-25 40,-40 20,-28 31,-61 31,-97l0 -1142 -32 -32 64 0 0 -79 -142 0 32 32z"/>
  <path class="fil2" d="M3458 5332c0,93 -76,168 -168,168 -26,0 -51,-6 -73,-17 27,56 85,95 152,95 36,0 70,-12 98,-31 14,-12 28,-25 40,-40 20,-28 31,-61 31,-97l0 -1173 32 0 0 -79 -110 0 0 1173z"/>
  <polygon class="fil2" points="2003,5016 2003,4982 1835,4885 1913,4964 "/>
  <polygon class="fil2" points="4166,3878 4308,2525 4288,2505 4480,2505 4472,2426 4209,2426 4230,2447 4079,3878 "/>
  <polygon class="fil2" points="3738,2760 3816,2760 3816,2615 3738,2536 "/>
  <path class="fil2" d="M3785 3775c20,-28 31,-61 31,-97l0 -286 -79 -79 0 286c0,93 -76,168 -168,168l-168 0 79 79 168 0c36,0 70,-12 97,-31 15,-12 28,-25 40,-40z"/>
  <polygon class="fil2" points="3848,3282 3848,3249 3479,3036 3479,3070 "/>
  <path class="fil2" d="M1876 4365c11,22 17,47 17,73l0 286 -337 194 79 79 337 -194 0 -286c0,-67 -39,-124 -95,-152z"/>
  <path class="fil2" d="M3944 5504c-11,-30 -16,-61 -16,-93l0 -247 -32 -32 64 0 0 -79 -142 0 32 32 0 247c0,32 5,63 16,93 20,57 59,106 109,139 -13,-19 -23,-39 -31,-61z"/>
  <path class="fil2" d="M3105 5504c-11,-30 -16,-61 -16,-93l0 -1142 -32 -32 64 0 0 -79 -142 0 32 32 0 1142c0,32 5,63 16,93 20,57 59,106 109,139 -13,-19 -23,-39 -31,-61z"/>
  <polygon class="fil2" points="4487,2955 4408,2877 4513,3878 4584,3878 "/>
  <polygon class="fil2" points="4811,4258 4791,4238 4983,4238 4975,4159 4712,4159 4733,4180 4582,5611 4669,5611 "/>
  <polygon class="fil2" points="2559,5042 2481,4964 2654,5611 2712,5611 "/>
  <polygon class="fil2" points="2116,2760 2195,2760 2195,2615 2116,2536 "/>
  <polygon class="fil2" points="4990,4688 4911,4610 5017,5611 5087,5611 "/>
  <path class="fil2" d="M2307 5611l0 -1342 -32 -32 311 0c32,0 63,5 93,16 22,8 42,18 61,31 -33,-50 -82,-89 -139,-109 -30,-11 -61,-16 -93,-16l-311 0 32 32 0 1420 79 0z"/>
  <path class="fil2" d="M1941 5508c19,-27 31,-61 31,-97l0 -286 -79 -79 0 286c0,93 -76,168 -168,168l-168 0 79 79 168 0c36,0 70,-12 97,-31 15,-12 28,-26 41,-41z"/>
  <path class="fil2" d="M2026 3846l168 0 0 -224 32 0 0 -79 -110 0 0 224 -168 0c-26,0 -51,-6 -73,-17 27,56 85,95 151,95z"/>
  <path class="fil2" d="M1524 5611l0 -1342 -32 -32 311 0c32,0 63,5 93,16 22,8 42,18 61,31 -33,-50 -82,-89 -139,-109 -30,-11 -61,-16 -93,-16l-311 0 32 32 0 1420 79 0z"/>
  <path class="fil2" d="M1794 3831c-13,-19 -23,-39 -31,-61 -11,-30 -16,-61 -16,-93l0 -895c0,-32 5,-63 16,-93 11,-30 27,-58 47,-83 11,-15 25,-29 40,-40 25,-20 53,-36 83,-47 30,-11 61,-16 93,-16l200 0 0 -79 -279 0c-32,0 -63,5 -93,16 -79,28 -142,91 -170,170 -11,30 -16,61 -16,93l0 894c0,32 5,63 16,93 20,57 59,106 109,139z"/>
 </g>
</svg>
